<svg xmlns="http://www.w3.org/2000/svg" version="1.1" xmlns:xlink="http://www.w3.org/1999/xlink" xmlns:svgjs="http://svgjs.dev/svgjs" width="1000" height="1000" viewBox="0 0 1000 1000"><rect width="1000" height="1000" fill="#000000"></rect><g transform="matrix(0.7,0,0,0.7,149.57575757575756,282.1265587044535)"><svg viewBox="0 0 396 247" data-background-color="#ffffff" preserveAspectRatio="xMidYMid meet" height="623" width="1000" xmlns="http://www.w3.org/2000/svg" xmlns:xlink="http://www.w3.org/1999/xlink"><g id="tight-bounds" transform="matrix(1,0,0,1,0.2400000000000091,-0.09999999999999432)"><svg viewBox="0 0 395.52 247.2" height="247.2" width="395.52"><g><svg></svg></g><g><svg viewBox="0 0 395.52 247.2" height="247.2" width="395.52"><g transform="matrix(1,0,0,1,75.54432,75.76082112478605)"><svg viewBox="0 0 244.43135999999998 95.67835775042788" height="95.67835775042788" width="244.43135999999998"><g><svg viewBox="0 0 245.65351679999995 96.15674953918" height="95.67835775042788" width="244.43135999999998"><g><rect width="245.65351679999995" height="2.9451542379764244" x="0" y="52.84352244680391" fill="#ffffff" opacity="1" stroke-width="0" stroke="transparent" fill-opacity="1" class="rect-o-0" data-fill-palette-color="primary" rx="1%" id="o-0" data-palette-color="#ff3e15"></rect></g><g transform="matrix(1,0,0,1,0.6110783999999825,63.49850453288616)"><svg viewBox="0 0 244.43135999999998 32.65824500629383" height="32.65824500629383" width="244.43135999999998"><g id="textblocktransform"><svg viewBox="0 0 244.43135999999998 32.65824500629383" height="32.65824500629383" width="244.43135999999998" id="textblock"><g><svg viewBox="0 0 244.43135999999998 32.65824500629383" height="32.65824500629383" width="244.43135999999998"><g transform="matrix(1,0,0,1,0,0)"><svg width="244.43135999999998" viewBox="2.700000047683716 -36.849998474121094 280.67999267578125 37.14999771118164" height="32.65824500629383" data-palette-color="#ff3e15"><g class="wordmark-text-0" data-fill-palette-color="primary" id="text-0"><path d="M23.15 0.3L23.15 0.3Q22.4 0.3 21.73-0.03 21.05-0.35 20.65-1.15L20.65-1.15 13.8-14.45 10.5-14.45 10.5-2.4Q10.5-1.2 9.28-0.6 8.05 0 6.6 0L6.6 0Q5.15 0 3.93-0.6 2.7-1.2 2.7-2.4L2.7-2.4 2.7-34.2Q2.7-35.15 3.35-35.85 4-36.55 5.1-36.55L5.1-36.55 15.45-36.55Q18.9-36.55 21.68-35.58 24.45-34.6 26.1-32.27 27.75-29.95 27.75-25.85L27.75-25.85Q27.75-23.05 26.98-21.03 26.2-19 24.83-17.7 23.45-16.4 21.7-15.7L21.7-15.7 27.8-4.65Q27.95-4.45 28-4.2 28.05-3.95 28.05-3.75L28.05-3.75Q28.05-2.8 27.3-1.85 26.55-0.9 25.43-0.3 24.3 0.3 23.15 0.3ZM10.5-29.75L10.5-20.45 15.45-20.45Q17.55-20.45 18.75-21.48 19.95-22.5 19.95-25.1L19.95-25.1Q19.95-27.75 18.75-28.75 17.55-29.75 15.45-29.75L15.45-29.75 10.5-29.75ZM53.1 0L35.3 0Q34.05 0 32.97-0.6 31.9-1.2 31.9-2.4L31.9-2.4 31.9-34.15Q31.9-35.35 32.97-35.95 34.05-36.55 35.3-36.55L35.3-36.55 53.1-36.55Q54.35-36.55 54.9-35.48 55.45-34.4 55.45-33.2L55.45-33.2Q55.45-31.8 54.85-30.78 54.25-29.75 53.1-29.75L53.1-29.75 39.7-29.75 39.7-21.3 47.2-21.3Q48.35-21.3 48.95-20.38 49.55-19.45 49.55-18.25L49.55-18.25Q49.55-17.25 49-16.28 48.45-15.3 47.2-15.3L47.2-15.3 39.7-15.3 39.7-6.8 53.1-6.8Q54.25-6.8 54.85-5.78 55.45-4.75 55.45-3.35L55.45-3.35Q55.45-2.15 54.9-1.07 54.35 0 53.1 0L53.1 0ZM62.75 0L62.75 0Q61.3 0 60.07-0.6 58.85-1.2 58.85-2.4L58.85-2.4 58.85-34.15Q58.85-35.4 60.07-35.98 61.3-36.55 62.75-36.55L62.75-36.55Q64.15-36.55 65.07-36.33 66-36.1 66.77-35.3 67.55-34.5 68.5-32.65L68.5-32.65 76.6-17.2 76.6-34.2Q76.6-35.45 77.82-36 79.05-36.55 80.5-36.55L80.5-36.55Q81.95-36.55 83.17-36 84.4-35.45 84.4-34.2L84.4-34.2 84.4-2.4Q84.4-1.2 83.17-0.6 81.95 0 80.5 0L80.5 0Q79.15 0 78-0.4 76.85-0.8 76.15-2.1L76.15-2.1 66.65-19.4 66.65-2.4Q66.65-1.2 65.42-0.6 64.2 0 62.75 0ZM100.64 0L100.64 0Q99.19 0 97.97-0.6 96.74-1.2 96.74-2.4L96.74-2.4 96.74-29.55 89.84-29.55Q88.74-29.55 88.12-30.63 87.49-31.7 87.49-33.1L87.49-33.1Q87.49-34.35 88.04-35.45 88.59-36.55 89.84-36.55L89.84-36.55 111.44-36.55Q112.69-36.55 113.24-35.45 113.79-34.35 113.79-33.1L113.79-33.1Q113.79-31.7 113.19-30.63 112.59-29.55 111.44-29.55L111.44-29.55 104.54-29.55 104.54-2.4Q104.54-1.2 103.32-0.6 102.09 0 100.64 0ZM131.09-8.85L118.09-8.85Q117.04-8.85 116.39-9.73 115.74-10.6 115.74-12L115.74-12Q115.74-13.35 116.39-14.28 117.04-15.2 118.09-15.2L118.09-15.2 131.09-15.2Q131.99-15.2 132.74-14.28 133.49-13.35 133.49-12L133.49-12Q133.49-10.6 132.74-9.73 131.99-8.85 131.09-8.85L131.09-8.85ZM140.19 0L140.19 0Q139.14 0 137.96-0.43 136.79-0.85 135.99-1.58 135.19-2.3 135.19-3.2L135.19-3.2Q135.19-3.35 135.29-3.75L135.29-3.75 144.59-34.25Q144.99-35.55 146.49-36.2 147.99-36.85 149.69-36.85L149.69-36.85Q151.44-36.85 152.91-36.2 154.39-35.55 154.79-34.25L154.79-34.25 164.14-3.75Q164.24-3.35 164.24-3.2L164.24-3.2Q164.24-2.3 163.44-1.58 162.64-0.85 161.49-0.43 160.34 0 159.24 0L159.24 0Q158.29 0 157.61-0.33 156.94-0.65 156.69-1.45L156.69-1.45 154.99-7.7 144.44-7.7 142.74-1.45Q142.54-0.65 141.84-0.33 141.14 0 140.19 0ZM149.69-27.1L146.04-13.7 153.34-13.7 149.69-27.1ZM181.34-8.85L168.34-8.85Q167.29-8.85 166.64-9.73 165.99-10.6 165.99-12L165.99-12Q165.99-13.35 166.64-14.28 167.29-15.2 168.34-15.2L168.34-15.2 181.34-15.2Q182.24-15.2 182.99-14.28 183.74-13.35 183.74-12L183.74-12Q183.74-10.6 182.99-9.73 182.24-8.85 181.34-8.85L181.34-8.85ZM208.38 0.3L208.38 0.3Q207.63 0.3 206.96-0.03 206.28-0.35 205.88-1.15L205.88-1.15 199.03-14.45 195.73-14.45 195.73-2.4Q195.73-1.2 194.51-0.6 193.28 0 191.83 0L191.83 0Q190.38 0 189.16-0.6 187.93-1.2 187.93-2.4L187.93-2.4 187.93-34.2Q187.93-35.15 188.58-35.85 189.23-36.55 190.33-36.55L190.33-36.55 200.68-36.55Q204.13-36.55 206.91-35.58 209.68-34.6 211.33-32.27 212.98-29.95 212.98-25.85L212.98-25.85Q212.98-23.05 212.21-21.03 211.43-19 210.06-17.7 208.68-16.4 206.93-15.7L206.93-15.7 213.03-4.65Q213.18-4.45 213.23-4.2 213.28-3.95 213.28-3.75L213.28-3.75Q213.28-2.8 212.53-1.85 211.78-0.9 210.66-0.3 209.53 0.3 208.38 0.3ZM195.73-29.75L195.73-20.45 200.68-20.45Q202.78-20.45 203.98-21.48 205.18-22.5 205.18-25.1L205.18-25.1Q205.18-27.75 203.98-28.75 202.78-29.75 200.68-29.75L200.68-29.75 195.73-29.75ZM221.03 0L221.03 0Q219.58 0 218.36-0.6 217.13-1.2 217.13-2.4L217.13-2.4 217.13-34.2Q217.13-35.45 218.36-36 219.58-36.55 221.03-36.55L221.03-36.55Q222.48-36.55 223.71-36 224.93-35.45 224.93-34.2L224.93-34.2 224.93-2.4Q224.93-1.2 223.71-0.6 222.48 0 221.03 0ZM242.58 0L233.73 0Q232.18 0 231.25-0.7 230.33-1.4 230.33-2.35L230.33-2.35 230.33-34.2Q230.33-35.15 231.25-35.85 232.18-36.55 233.73-36.55L233.73-36.55 242.58-36.55Q246.03-36.55 248.83-35.4 251.63-34.25 253.25-31.65 254.88-29.05 254.88-24.75L254.88-24.75 254.88-11.8Q254.88-7.5 253.25-4.9 251.63-2.3 248.83-1.15 246.03 0 242.58 0L242.58 0ZM238.13-29.75L238.13-6.8 242.58-6.8Q244.68-6.8 245.88-8.03 247.08-9.25 247.08-11.8L247.08-11.8 247.08-24.75Q247.08-27.3 245.88-28.53 244.68-29.75 242.58-29.75L242.58-29.75 238.13-29.75ZM281.03 0L263.23 0Q261.98 0 260.9-0.6 259.83-1.2 259.83-2.4L259.83-2.4 259.83-34.15Q259.83-35.35 260.9-35.95 261.98-36.55 263.23-36.55L263.23-36.55 281.03-36.55Q282.28-36.55 282.83-35.48 283.38-34.4 283.38-33.2L283.38-33.2Q283.38-31.8 282.78-30.78 282.18-29.75 281.03-29.75L281.03-29.75 267.63-29.75 267.63-21.3 275.13-21.3Q276.28-21.3 276.88-20.38 277.48-19.45 277.48-18.25L277.48-18.25Q277.48-17.25 276.93-16.28 276.38-15.3 275.13-15.3L275.13-15.3 267.63-15.3 267.63-6.8 281.03-6.8Q282.18-6.8 282.78-5.78 283.38-4.75 283.38-3.35L283.38-3.35Q283.38-2.15 282.83-1.07 282.28 0 281.03 0L281.03 0Z" fill="#ffffff" data-fill-palette-color="primary"></path></g></svg></g></svg></g></svg></g></svg></g><g transform="matrix(1,0,0,1,64.13498366419046,0)"><svg viewBox="0 0 117.38354947161905 45.133694598698085" height="45.133694598698085" width="117.38354947161905"><g><svg version="1.0" xmlns="http://www.w3.org/2000/svg" xmlns:xlink="http://www.w3.org/1999/xlink" x="0" y="0" viewBox="0 0.00023700809106230736 100.00000762939453 38.449764251708984" enable-background="new 0 0 100 38.449" xml:space="preserve" width="117.38354947161905" height="45.133694598698085" class="icon-icon-0" data-fill-palette-color="accent" id="icon-0"><path d="M99.929 15.958c-0.053-0.283-0.157-0.619-0.364-1.056L80.803 0.005h-37.75c-0.874-0.054-1.348 0.359-1.763 0.841L28.672 13.487 1.078 18.071C0.694 18.406 0.309 18.735 0 19.599l0.059 9.493c0.598 1.521 1.006 1.324 1.459 1.536h5.312c0-12.905 19.225-12.856 19.225 0h49.021c0-12.933 19.08-12.906 19.08 0h4.354c0.731-0.067 1.142-0.713 1.49-1.47L99.929 15.958zM59.408 15.346H33.254c-0.995-0.393-1.13-0.988-0.716-1.713l9.403-9.278c0.212-0.18 0.379-0.428 0.747-0.374h16.72V15.346zM86.488 15.348H62.516V3.983h14.066c0.368-0.055 0.535 0.193 0.747 0.374l8.058 8.115C86.13 13.591 87.623 15.122 86.488 15.348z" fill="#ffffff" data-fill-palette-color="accent"></path><path d="M16.396 22.843c-4.31 0-7.804 3.493-7.804 7.803s3.494 7.804 7.804 7.804 7.804-3.494 7.804-7.804S20.705 22.843 16.396 22.843zM16.396 33.921c-1.819 0-3.294-1.475-3.294-3.293 0-1.819 1.475-3.294 3.294-3.294 1.818 0 3.293 1.475 3.293 3.294C19.688 32.446 18.214 33.921 16.396 33.921z" fill="#ffffff" data-fill-palette-color="accent"></path><path d="M84.615 22.839c-4.31 0-7.804 3.494-7.804 7.804s3.494 7.804 7.804 7.804 7.803-3.494 7.803-7.804S88.925 22.839 84.615 22.839zM84.615 33.921c-1.819 0-3.294-1.475-3.294-3.293 0-1.819 1.475-3.294 3.294-3.294 1.818 0 3.293 1.475 3.293 3.294C87.908 32.446 86.434 33.921 84.615 33.921z" fill="#ffffff" data-fill-palette-color="accent"></path></svg></g></svg></g><g></g></svg></g></svg></g><g><path d="M88.878 68.089A122.216 122.216 0 0 1 306.642 68.089L303.711 68.089A119.285 119.285 0 0 0 91.809 68.089L88.878 68.089M88.878 179.111A122.216 122.216 0 0 0 306.642 179.111L303.711 179.111A119.285 119.285 0 0 1 91.809 179.111L88.878 179.111" fill="#ffffff" stroke="transparent" data-fill-palette-color="tertiary"></path></g></svg></g><defs></defs></svg><rect width="395.52" height="247.2" fill="none" stroke="none" visibility="hidden"></rect></g></svg></g></svg>